<mxfile host="app.diagrams.net" modified="2024-02-02T09:54:29.506Z" agent="Mozilla/5.0 (Windows NT 10.0; Win64; x64) AppleWebKit/537.36 (KHTML, like Gecko) Chrome/121.0.0.0 Safari/537.36" etag="FEbD1zg6x3pznO5uIbdU" version="23.0.2" type="github" pages="4">
  <diagram name="Trivy - Day 1" id="JwNJeWz0HLJu226DYc6Z">
    <mxGraphModel dx="1434" dy="780" grid="1" gridSize="10" guides="1" tooltips="1" connect="1" arrows="1" fold="1" page="1" pageScale="1" pageWidth="1169" pageHeight="827" math="0" shadow="0">
      <root>
        <mxCell id="0" />
        <mxCell id="1" parent="0" />
        <mxCell id="wpiPwOu3ToZtSx2f1uHu-18" value="Trivy Scanning For Day 1" style="swimlane;childLayout=stackLayout;resizeParent=1;resizeParentMax=0;horizontal=1;startSize=20;horizontalStack=0;html=1;" parent="1" vertex="1">
          <mxGeometry width="920" height="740" as="geometry">
            <mxRectangle width="180" height="30" as="alternateBounds" />
          </mxGeometry>
        </mxCell>
        <mxCell id="wpiPwOu3ToZtSx2f1uHu-19" value="Development" style="swimlane;startSize=20;horizontal=0;html=1;" parent="wpiPwOu3ToZtSx2f1uHu-18" vertex="1">
          <mxGeometry y="20" width="920" height="180" as="geometry">
            <mxRectangle y="20" width="760" height="30" as="alternateBounds" />
          </mxGeometry>
        </mxCell>
        <mxCell id="wpiPwOu3ToZtSx2f1uHu-27" value="" style="edgeStyle=orthogonalEdgeStyle;rounded=0;orthogonalLoop=1;jettySize=auto;html=1;" parent="wpiPwOu3ToZtSx2f1uHu-19" source="wpiPwOu3ToZtSx2f1uHu-22" target="wpiPwOu3ToZtSx2f1uHu-26" edge="1">
          <mxGeometry relative="1" as="geometry" />
        </mxCell>
        <mxCell id="wpiPwOu3ToZtSx2f1uHu-22" value="Check-out source code" style="rounded=1;whiteSpace=wrap;html=1;" parent="wpiPwOu3ToZtSx2f1uHu-19" vertex="1">
          <mxGeometry x="40" y="60" width="120" height="60" as="geometry" />
        </mxCell>
        <mxCell id="wpiPwOu3ToZtSx2f1uHu-26" value="Build image and upload to Quay" style="rounded=1;whiteSpace=wrap;html=1;" parent="wpiPwOu3ToZtSx2f1uHu-19" vertex="1">
          <mxGeometry x="273" y="60" width="120" height="60" as="geometry" />
        </mxCell>
        <mxCell id="wpiPwOu3ToZtSx2f1uHu-59" style="edgeStyle=orthogonalEdgeStyle;rounded=0;orthogonalLoop=1;jettySize=auto;html=1;exitX=0;exitY=0.5;exitDx=0;exitDy=0;exitPerimeter=0;entryX=1;entryY=0.5;entryDx=0;entryDy=0;" parent="wpiPwOu3ToZtSx2f1uHu-19" source="wpiPwOu3ToZtSx2f1uHu-56" target="wpiPwOu3ToZtSx2f1uHu-26" edge="1">
          <mxGeometry relative="1" as="geometry" />
        </mxCell>
        <mxCell id="wpiPwOu3ToZtSx2f1uHu-60" value="Yes" style="edgeLabel;html=1;align=center;verticalAlign=middle;resizable=0;points=[];" parent="wpiPwOu3ToZtSx2f1uHu-59" vertex="1" connectable="0">
          <mxGeometry x="-0.158" relative="1" as="geometry">
            <mxPoint as="offset" />
          </mxGeometry>
        </mxCell>
        <mxCell id="wpiPwOu3ToZtSx2f1uHu-56" value="Fix?" style="strokeWidth=2;html=1;shape=mxgraph.flowchart.decision;whiteSpace=wrap;" parent="wpiPwOu3ToZtSx2f1uHu-19" vertex="1">
          <mxGeometry x="560" y="40" width="100" height="100" as="geometry" />
        </mxCell>
        <mxCell id="wpiPwOu3ToZtSx2f1uHu-20" value="QA" style="swimlane;startSize=20;horizontal=0;html=1;" parent="wpiPwOu3ToZtSx2f1uHu-18" vertex="1">
          <mxGeometry y="200" width="920" height="180" as="geometry">
            <mxRectangle y="200" width="920" height="30" as="alternateBounds" />
          </mxGeometry>
        </mxCell>
        <mxCell id="wpiPwOu3ToZtSx2f1uHu-32" value="QA Test Pass?" style="strokeWidth=2;html=1;shape=mxgraph.flowchart.decision;whiteSpace=wrap;" parent="wpiPwOu3ToZtSx2f1uHu-20" vertex="1">
          <mxGeometry x="283" y="40" width="100" height="100" as="geometry" />
        </mxCell>
        <mxCell id="wpiPwOu3ToZtSx2f1uHu-21" value="DevOps" style="swimlane;startSize=20;horizontal=0;html=1;" parent="wpiPwOu3ToZtSx2f1uHu-18" vertex="1">
          <mxGeometry y="380" width="920" height="180" as="geometry" />
        </mxCell>
        <mxCell id="wpiPwOu3ToZtSx2f1uHu-45" value="Scan image vulnerability Pass?" style="strokeWidth=2;html=1;shape=mxgraph.flowchart.decision;whiteSpace=wrap;" parent="wpiPwOu3ToZtSx2f1uHu-21" vertex="1">
          <mxGeometry x="283" y="40" width="100" height="100" as="geometry" />
        </mxCell>
        <mxCell id="wpiPwOu3ToZtSx2f1uHu-25" value="Application Support" style="swimlane;startSize=20;horizontal=0;html=1;" parent="wpiPwOu3ToZtSx2f1uHu-18" vertex="1">
          <mxGeometry y="560" width="920" height="180" as="geometry">
            <mxRectangle y="560" width="920" height="30" as="alternateBounds" />
          </mxGeometry>
        </mxCell>
        <mxCell id="wpiPwOu3ToZtSx2f1uHu-52" value="Service Deployment" style="strokeWidth=2;html=1;shape=mxgraph.flowchart.terminator;whiteSpace=wrap;" parent="wpiPwOu3ToZtSx2f1uHu-25" vertex="1">
          <mxGeometry x="283" y="60" width="100" height="60" as="geometry" />
        </mxCell>
        <mxCell id="wpiPwOu3ToZtSx2f1uHu-63" value="Handover &amp;amp; Backlog" style="rounded=1;whiteSpace=wrap;html=1;" parent="wpiPwOu3ToZtSx2f1uHu-25" vertex="1">
          <mxGeometry x="550" y="60" width="120" height="60" as="geometry" />
        </mxCell>
        <mxCell id="wpiPwOu3ToZtSx2f1uHu-66" style="edgeStyle=orthogonalEdgeStyle;rounded=0;orthogonalLoop=1;jettySize=auto;html=1;exitX=0;exitY=0.5;exitDx=0;exitDy=0;entryX=1;entryY=0.5;entryDx=0;entryDy=0;entryPerimeter=0;" parent="wpiPwOu3ToZtSx2f1uHu-25" source="wpiPwOu3ToZtSx2f1uHu-63" target="wpiPwOu3ToZtSx2f1uHu-52" edge="1">
          <mxGeometry relative="1" as="geometry" />
        </mxCell>
        <mxCell id="wpiPwOu3ToZtSx2f1uHu-31" value="" style="endArrow=classic;html=1;rounded=0;exitX=0.5;exitY=1;exitDx=0;exitDy=0;" parent="wpiPwOu3ToZtSx2f1uHu-18" source="wpiPwOu3ToZtSx2f1uHu-26" edge="1">
          <mxGeometry width="50" height="50" relative="1" as="geometry">
            <mxPoint x="523" y="320" as="sourcePoint" />
            <mxPoint x="333" y="240" as="targetPoint" />
          </mxGeometry>
        </mxCell>
        <mxCell id="wpiPwOu3ToZtSx2f1uHu-37" style="edgeStyle=orthogonalEdgeStyle;rounded=0;orthogonalLoop=1;jettySize=auto;html=1;exitX=0;exitY=0.5;exitDx=0;exitDy=0;exitPerimeter=0;entryX=0.5;entryY=1;entryDx=0;entryDy=0;" parent="wpiPwOu3ToZtSx2f1uHu-18" source="wpiPwOu3ToZtSx2f1uHu-32" target="wpiPwOu3ToZtSx2f1uHu-22" edge="1">
          <mxGeometry relative="1" as="geometry" />
        </mxCell>
        <mxCell id="wpiPwOu3ToZtSx2f1uHu-38" value="No" style="edgeLabel;html=1;align=center;verticalAlign=middle;resizable=0;points=[];" parent="wpiPwOu3ToZtSx2f1uHu-37" vertex="1" connectable="0">
          <mxGeometry x="0.2056" y="3" relative="1" as="geometry">
            <mxPoint as="offset" />
          </mxGeometry>
        </mxCell>
        <mxCell id="wpiPwOu3ToZtSx2f1uHu-41" style="edgeStyle=orthogonalEdgeStyle;rounded=0;orthogonalLoop=1;jettySize=auto;html=1;exitX=0.5;exitY=1;exitDx=0;exitDy=0;exitPerimeter=0;" parent="wpiPwOu3ToZtSx2f1uHu-18" source="wpiPwOu3ToZtSx2f1uHu-32" edge="1">
          <mxGeometry relative="1" as="geometry">
            <mxPoint x="333" y="420" as="targetPoint" />
          </mxGeometry>
        </mxCell>
        <mxCell id="wpiPwOu3ToZtSx2f1uHu-43" value="Yes" style="edgeLabel;html=1;align=center;verticalAlign=middle;resizable=0;points=[];" parent="wpiPwOu3ToZtSx2f1uHu-41" vertex="1" connectable="0">
          <mxGeometry x="-0.4333" relative="1" as="geometry">
            <mxPoint as="offset" />
          </mxGeometry>
        </mxCell>
        <mxCell id="wpiPwOu3ToZtSx2f1uHu-50" style="edgeStyle=orthogonalEdgeStyle;rounded=0;orthogonalLoop=1;jettySize=auto;html=1;exitX=0.5;exitY=1;exitDx=0;exitDy=0;exitPerimeter=0;" parent="wpiPwOu3ToZtSx2f1uHu-18" source="wpiPwOu3ToZtSx2f1uHu-45" edge="1">
          <mxGeometry relative="1" as="geometry">
            <mxPoint x="333" y="620" as="targetPoint" />
          </mxGeometry>
        </mxCell>
        <mxCell id="wpiPwOu3ToZtSx2f1uHu-51" value="Yes" style="edgeLabel;html=1;align=center;verticalAlign=middle;resizable=0;points=[];" parent="wpiPwOu3ToZtSx2f1uHu-50" vertex="1" connectable="0">
          <mxGeometry x="-0.4333" y="2" relative="1" as="geometry">
            <mxPoint as="offset" />
          </mxGeometry>
        </mxCell>
        <mxCell id="wpiPwOu3ToZtSx2f1uHu-57" style="edgeStyle=orthogonalEdgeStyle;rounded=0;orthogonalLoop=1;jettySize=auto;html=1;exitX=1;exitY=0.5;exitDx=0;exitDy=0;exitPerimeter=0;entryX=0.5;entryY=1;entryDx=0;entryDy=0;entryPerimeter=0;" parent="wpiPwOu3ToZtSx2f1uHu-18" source="wpiPwOu3ToZtSx2f1uHu-45" target="wpiPwOu3ToZtSx2f1uHu-56" edge="1">
          <mxGeometry relative="1" as="geometry" />
        </mxCell>
        <mxCell id="wpiPwOu3ToZtSx2f1uHu-58" value="No" style="edgeLabel;html=1;align=center;verticalAlign=middle;resizable=0;points=[];" parent="wpiPwOu3ToZtSx2f1uHu-57" vertex="1" connectable="0">
          <mxGeometry x="-0.5807" y="-1" relative="1" as="geometry">
            <mxPoint as="offset" />
          </mxGeometry>
        </mxCell>
        <mxCell id="wpiPwOu3ToZtSx2f1uHu-64" style="edgeStyle=orthogonalEdgeStyle;rounded=0;orthogonalLoop=1;jettySize=auto;html=1;exitX=1;exitY=0.5;exitDx=0;exitDy=0;exitPerimeter=0;entryX=1;entryY=0.5;entryDx=0;entryDy=0;" parent="wpiPwOu3ToZtSx2f1uHu-18" source="wpiPwOu3ToZtSx2f1uHu-56" target="wpiPwOu3ToZtSx2f1uHu-63" edge="1">
          <mxGeometry relative="1" as="geometry">
            <Array as="points">
              <mxPoint x="720" y="110" />
              <mxPoint x="720" y="650" />
            </Array>
          </mxGeometry>
        </mxCell>
        <mxCell id="wpiPwOu3ToZtSx2f1uHu-65" value="No" style="edgeLabel;html=1;align=center;verticalAlign=middle;resizable=0;points=[];" parent="wpiPwOu3ToZtSx2f1uHu-64" vertex="1" connectable="0">
          <mxGeometry x="-0.709" y="2" relative="1" as="geometry">
            <mxPoint as="offset" />
          </mxGeometry>
        </mxCell>
        <mxCell id="wpiPwOu3ToZtSx2f1uHu-53" value="&lt;h1&gt;&lt;br&gt;&lt;/h1&gt;&lt;p&gt;Trivy scanning and produce the image vulnerability report to Azure Devops (gitops repo)&lt;/p&gt;" style="text;html=1;strokeColor=none;fillColor=none;spacing=5;spacingTop=-20;whiteSpace=wrap;overflow=hidden;rounded=0;" parent="1" vertex="1">
          <mxGeometry x="950" y="440" width="190" height="120" as="geometry" />
        </mxCell>
        <mxCell id="wpiPwOu3ToZtSx2f1uHu-54" value="&lt;h1&gt;Auto Test&lt;/h1&gt;&lt;p&gt;Auto test tools engage if applicable.&amp;nbsp;&lt;/p&gt;" style="text;html=1;strokeColor=none;fillColor=none;spacing=5;spacingTop=-20;whiteSpace=wrap;overflow=hidden;rounded=0;" parent="1" vertex="1">
          <mxGeometry x="950" y="230" width="190" height="120" as="geometry" />
        </mxCell>
        <mxCell id="wpiPwOu3ToZtSx2f1uHu-55" value="&lt;h1&gt;Azure DevOps&lt;/h1&gt;&lt;p&gt;Developer review vulnerability report and take correspondence action. (code/base image fix)&lt;/p&gt;" style="text;html=1;strokeColor=none;fillColor=none;spacing=5;spacingTop=-20;whiteSpace=wrap;overflow=hidden;rounded=0;" parent="1" vertex="1">
          <mxGeometry x="950" y="40" width="190" height="120" as="geometry" />
        </mxCell>
        <mxCell id="eVGFCq8S3wRmQjsp_y7L-3" value="" style="shape=image;imageAspect=0;aspect=fixed;verticalLabelPosition=bottom;verticalAlign=top;image=https://github.com/aquasecurity/trivy/blob/main/docs/imgs/logo.png?raw=true;" parent="1" vertex="1">
          <mxGeometry x="960" y="380" width="95.3" height="100" as="geometry" />
        </mxCell>
      </root>
    </mxGraphModel>
  </diagram>
  <diagram id="jBzSazyjYnS68a4SbmRo" name="Trivy &amp; Copa - Day 2">
    <mxGraphModel dx="1195" dy="650" grid="1" gridSize="10" guides="1" tooltips="1" connect="1" arrows="1" fold="1" page="1" pageScale="1" pageWidth="1169" pageHeight="827" math="0" shadow="0">
      <root>
        <mxCell id="0" />
        <mxCell id="1" parent="0" />
        <mxCell id="eGXFCXLZUiKaNg5hc2vE-1" value="Trivy Scanning &amp;amp; Copa Patch For Day 2" style="swimlane;childLayout=stackLayout;resizeParent=1;resizeParentMax=0;horizontal=1;startSize=20;horizontalStack=0;html=1;" vertex="1" parent="1">
          <mxGeometry width="960" height="820" as="geometry" />
        </mxCell>
        <mxCell id="eGXFCXLZUiKaNg5hc2vE-2" value="Development" style="swimlane;startSize=20;horizontal=0;html=1;" vertex="1" parent="eGXFCXLZUiKaNg5hc2vE-1">
          <mxGeometry y="20" width="960" height="180" as="geometry" />
        </mxCell>
        <mxCell id="VLwGt4rIueeBjbolcwWo-1" style="edgeStyle=orthogonalEdgeStyle;rounded=0;orthogonalLoop=1;jettySize=auto;html=1;exitX=1;exitY=0.5;exitDx=0;exitDy=0;exitPerimeter=0;entryX=0;entryY=0.5;entryDx=0;entryDy=0;" edge="1" parent="eGXFCXLZUiKaNg5hc2vE-2" source="7ALGjgdlmBuk4FBeGlCD-2" target="7ALGjgdlmBuk4FBeGlCD-8">
          <mxGeometry relative="1" as="geometry" />
        </mxCell>
        <mxCell id="0ijsDjMIG8RuQzClZVB7-1" value="Yes" style="edgeLabel;html=1;align=center;verticalAlign=middle;resizable=0;points=[];" vertex="1" connectable="0" parent="VLwGt4rIueeBjbolcwWo-1">
          <mxGeometry x="-0.0694" relative="1" as="geometry">
            <mxPoint as="offset" />
          </mxGeometry>
        </mxCell>
        <mxCell id="7ALGjgdlmBuk4FBeGlCD-2" value="Code Fix needed?" style="strokeWidth=2;html=1;shape=mxgraph.flowchart.decision;whiteSpace=wrap;" vertex="1" parent="eGXFCXLZUiKaNg5hc2vE-2">
          <mxGeometry x="420" y="39" width="100" height="100" as="geometry" />
        </mxCell>
        <mxCell id="7ALGjgdlmBuk4FBeGlCD-8" value="Build image and upload to Quay" style="rounded=1;whiteSpace=wrap;html=1;" vertex="1" parent="eGXFCXLZUiKaNg5hc2vE-2">
          <mxGeometry x="639" y="58" width="120" height="60" as="geometry" />
        </mxCell>
        <mxCell id="eGXFCXLZUiKaNg5hc2vE-3" value="QA" style="swimlane;startSize=20;horizontal=0;html=1;" vertex="1" parent="eGXFCXLZUiKaNg5hc2vE-1">
          <mxGeometry y="200" width="960" height="180" as="geometry" />
        </mxCell>
        <mxCell id="8xpqo2ipWvwapBS9JPTH-21" value="Regression&lt;br&gt;Pass?" style="strokeWidth=2;html=1;shape=mxgraph.flowchart.decision;whiteSpace=wrap;" vertex="1" parent="eGXFCXLZUiKaNg5hc2vE-3">
          <mxGeometry x="420" y="39" width="100" height="100" as="geometry" />
        </mxCell>
        <mxCell id="VLwGt4rIueeBjbolcwWo-2" value="Test Pass?" style="strokeWidth=2;html=1;shape=mxgraph.flowchart.decision;whiteSpace=wrap;" vertex="1" parent="eGXFCXLZUiKaNg5hc2vE-3">
          <mxGeometry x="649" y="39" width="100" height="100" as="geometry" />
        </mxCell>
        <mxCell id="eGXFCXLZUiKaNg5hc2vE-4" value="DevOps" style="swimlane;startSize=20;horizontal=0;html=1;" vertex="1" parent="eGXFCXLZUiKaNg5hc2vE-1">
          <mxGeometry y="380" width="960" height="310" as="geometry" />
        </mxCell>
        <mxCell id="jhG8SHZq5E_pg1-oZrqN-1" value="Vulnerability scan &amp;amp; reporting" style="rounded=1;whiteSpace=wrap;html=1;" vertex="1" parent="eGXFCXLZUiKaNg5hc2vE-4">
          <mxGeometry x="40" y="40" width="120" height="60" as="geometry" />
        </mxCell>
        <mxCell id="8xpqo2ipWvwapBS9JPTH-16" style="edgeStyle=orthogonalEdgeStyle;rounded=0;orthogonalLoop=1;jettySize=auto;html=1;exitX=1;exitY=0.5;exitDx=0;exitDy=0;exitPerimeter=0;entryX=0;entryY=0.5;entryDx=0;entryDy=0;" edge="1" parent="eGXFCXLZUiKaNg5hc2vE-4" source="8xpqo2ipWvwapBS9JPTH-3" target="8xpqo2ipWvwapBS9JPTH-13">
          <mxGeometry relative="1" as="geometry" />
        </mxCell>
        <mxCell id="8xpqo2ipWvwapBS9JPTH-17" value="Yes" style="edgeLabel;html=1;align=center;verticalAlign=middle;resizable=0;points=[];" vertex="1" connectable="0" parent="8xpqo2ipWvwapBS9JPTH-16">
          <mxGeometry x="-0.0952" y="-2" relative="1" as="geometry">
            <mxPoint as="offset" />
          </mxGeometry>
        </mxCell>
        <mxCell id="8xpqo2ipWvwapBS9JPTH-3" value="Vulnerability?" style="strokeWidth=2;html=1;shape=mxgraph.flowchart.decision;whiteSpace=wrap;" vertex="1" parent="eGXFCXLZUiKaNg5hc2vE-4">
          <mxGeometry x="233" y="20" width="100" height="100" as="geometry" />
        </mxCell>
        <mxCell id="8xpqo2ipWvwapBS9JPTH-4" style="edgeStyle=orthogonalEdgeStyle;rounded=0;orthogonalLoop=1;jettySize=auto;html=1;exitX=1;exitY=0.5;exitDx=0;exitDy=0;entryX=0;entryY=0.5;entryDx=0;entryDy=0;entryPerimeter=0;" edge="1" parent="eGXFCXLZUiKaNg5hc2vE-4" source="jhG8SHZq5E_pg1-oZrqN-1" target="8xpqo2ipWvwapBS9JPTH-3">
          <mxGeometry relative="1" as="geometry" />
        </mxCell>
        <mxCell id="8xpqo2ipWvwapBS9JPTH-13" value="copa patch the image and push to Quay" style="rounded=1;whiteSpace=wrap;html=1;" vertex="1" parent="eGXFCXLZUiKaNg5hc2vE-4">
          <mxGeometry x="410" y="40" width="120" height="60" as="geometry" />
        </mxCell>
        <mxCell id="mYl5IkguqgV1kbJh_1Vj-2" value="Application Support" style="swimlane;startSize=20;horizontal=0;html=1;" vertex="1" parent="eGXFCXLZUiKaNg5hc2vE-1">
          <mxGeometry y="690" width="960" height="130" as="geometry" />
        </mxCell>
        <mxCell id="8xpqo2ipWvwapBS9JPTH-23" value="No Change /&amp;nbsp;&lt;br&gt;Service Deployment" style="strokeWidth=2;html=1;shape=mxgraph.flowchart.terminator;whiteSpace=wrap;" vertex="1" parent="mYl5IkguqgV1kbJh_1Vj-2">
          <mxGeometry x="390" y="45" width="130" height="60" as="geometry" />
        </mxCell>
        <mxCell id="8xpqo2ipWvwapBS9JPTH-22" style="edgeStyle=orthogonalEdgeStyle;rounded=0;orthogonalLoop=1;jettySize=auto;html=1;exitX=0.5;exitY=0;exitDx=0;exitDy=0;entryX=0.5;entryY=1;entryDx=0;entryDy=0;entryPerimeter=0;" edge="1" parent="eGXFCXLZUiKaNg5hc2vE-1" source="8xpqo2ipWvwapBS9JPTH-13" target="8xpqo2ipWvwapBS9JPTH-21">
          <mxGeometry relative="1" as="geometry" />
        </mxCell>
        <mxCell id="7ALGjgdlmBuk4FBeGlCD-3" value="" style="edgeStyle=orthogonalEdgeStyle;rounded=0;orthogonalLoop=1;jettySize=auto;html=1;" edge="1" parent="eGXFCXLZUiKaNg5hc2vE-1" source="8xpqo2ipWvwapBS9JPTH-21" target="7ALGjgdlmBuk4FBeGlCD-2">
          <mxGeometry relative="1" as="geometry" />
        </mxCell>
        <mxCell id="7ALGjgdlmBuk4FBeGlCD-4" value="No" style="edgeLabel;html=1;align=center;verticalAlign=middle;resizable=0;points=[];" vertex="1" connectable="0" parent="7ALGjgdlmBuk4FBeGlCD-3">
          <mxGeometry x="-0.525" relative="1" as="geometry">
            <mxPoint as="offset" />
          </mxGeometry>
        </mxCell>
        <mxCell id="7ALGjgdlmBuk4FBeGlCD-5" style="edgeStyle=orthogonalEdgeStyle;rounded=0;orthogonalLoop=1;jettySize=auto;html=1;exitX=0;exitY=0.5;exitDx=0;exitDy=0;exitPerimeter=0;entryX=0;entryY=0.5;entryDx=0;entryDy=0;entryPerimeter=0;" edge="1" parent="eGXFCXLZUiKaNg5hc2vE-1" source="7ALGjgdlmBuk4FBeGlCD-2" target="8xpqo2ipWvwapBS9JPTH-21">
          <mxGeometry relative="1" as="geometry">
            <Array as="points">
              <mxPoint x="390" y="109" />
              <mxPoint x="390" y="289" />
            </Array>
          </mxGeometry>
        </mxCell>
        <mxCell id="7ALGjgdlmBuk4FBeGlCD-6" value="No" style="edgeLabel;html=1;align=center;verticalAlign=middle;resizable=0;points=[];" vertex="1" connectable="0" parent="7ALGjgdlmBuk4FBeGlCD-5">
          <mxGeometry x="-0.2712" relative="1" as="geometry">
            <mxPoint as="offset" />
          </mxGeometry>
        </mxCell>
        <mxCell id="VLwGt4rIueeBjbolcwWo-3" style="edgeStyle=orthogonalEdgeStyle;rounded=0;orthogonalLoop=1;jettySize=auto;html=1;exitX=1;exitY=0.5;exitDx=0;exitDy=0;exitPerimeter=0;entryX=1;entryY=0.5;entryDx=0;entryDy=0;entryPerimeter=0;" edge="1" parent="eGXFCXLZUiKaNg5hc2vE-1" source="8xpqo2ipWvwapBS9JPTH-21" target="8xpqo2ipWvwapBS9JPTH-23">
          <mxGeometry relative="1" as="geometry">
            <Array as="points">
              <mxPoint x="560" y="289" />
              <mxPoint x="560" y="765" />
            </Array>
          </mxGeometry>
        </mxCell>
        <mxCell id="VLwGt4rIueeBjbolcwWo-4" value="Yes" style="edgeLabel;html=1;align=center;verticalAlign=middle;resizable=0;points=[];" vertex="1" connectable="0" parent="VLwGt4rIueeBjbolcwWo-3">
          <mxGeometry x="-0.6577" y="-1" relative="1" as="geometry">
            <mxPoint as="offset" />
          </mxGeometry>
        </mxCell>
        <mxCell id="0ijsDjMIG8RuQzClZVB7-2" style="edgeStyle=orthogonalEdgeStyle;rounded=0;orthogonalLoop=1;jettySize=auto;html=1;exitX=0.5;exitY=1;exitDx=0;exitDy=0;entryX=0.5;entryY=0;entryDx=0;entryDy=0;entryPerimeter=0;" edge="1" parent="eGXFCXLZUiKaNg5hc2vE-1" source="7ALGjgdlmBuk4FBeGlCD-8" target="VLwGt4rIueeBjbolcwWo-2">
          <mxGeometry relative="1" as="geometry" />
        </mxCell>
        <mxCell id="0ijsDjMIG8RuQzClZVB7-3" style="edgeStyle=orthogonalEdgeStyle;rounded=0;orthogonalLoop=1;jettySize=auto;html=1;exitX=0.5;exitY=1;exitDx=0;exitDy=0;exitPerimeter=0;entryX=0.458;entryY=1.014;entryDx=0;entryDy=0;entryPerimeter=0;" edge="1" parent="eGXFCXLZUiKaNg5hc2vE-1" source="VLwGt4rIueeBjbolcwWo-2" target="jhG8SHZq5E_pg1-oZrqN-1">
          <mxGeometry relative="1" as="geometry">
            <Array as="points">
              <mxPoint x="699" y="660" />
              <mxPoint x="95" y="660" />
            </Array>
          </mxGeometry>
        </mxCell>
        <mxCell id="0ijsDjMIG8RuQzClZVB7-4" value="Yes" style="edgeLabel;html=1;align=center;verticalAlign=middle;resizable=0;points=[];" vertex="1" connectable="0" parent="0ijsDjMIG8RuQzClZVB7-3">
          <mxGeometry x="-0.9605" y="-1" relative="1" as="geometry">
            <mxPoint as="offset" />
          </mxGeometry>
        </mxCell>
        <mxCell id="0ijsDjMIG8RuQzClZVB7-5" style="edgeStyle=orthogonalEdgeStyle;rounded=0;orthogonalLoop=1;jettySize=auto;html=1;exitX=1;exitY=0.5;exitDx=0;exitDy=0;exitPerimeter=0;entryX=0.5;entryY=0;entryDx=0;entryDy=0;entryPerimeter=0;" edge="1" parent="eGXFCXLZUiKaNg5hc2vE-1" source="VLwGt4rIueeBjbolcwWo-2" target="7ALGjgdlmBuk4FBeGlCD-2">
          <mxGeometry relative="1" as="geometry" />
        </mxCell>
        <mxCell id="0ijsDjMIG8RuQzClZVB7-6" value="No" style="edgeLabel;html=1;align=center;verticalAlign=middle;resizable=0;points=[];" vertex="1" connectable="0" parent="0ijsDjMIG8RuQzClZVB7-5">
          <mxGeometry x="-0.7855" y="-3" relative="1" as="geometry">
            <mxPoint as="offset" />
          </mxGeometry>
        </mxCell>
        <mxCell id="0ijsDjMIG8RuQzClZVB7-7" style="edgeStyle=orthogonalEdgeStyle;rounded=0;orthogonalLoop=1;jettySize=auto;html=1;exitX=0.5;exitY=1;exitDx=0;exitDy=0;exitPerimeter=0;entryX=0;entryY=0.5;entryDx=0;entryDy=0;entryPerimeter=0;" edge="1" parent="eGXFCXLZUiKaNg5hc2vE-1" source="8xpqo2ipWvwapBS9JPTH-3" target="8xpqo2ipWvwapBS9JPTH-23">
          <mxGeometry relative="1" as="geometry" />
        </mxCell>
        <mxCell id="0ijsDjMIG8RuQzClZVB7-8" value="No" style="edgeLabel;html=1;align=center;verticalAlign=middle;resizable=0;points=[];" vertex="1" connectable="0" parent="0ijsDjMIG8RuQzClZVB7-7">
          <mxGeometry x="-0.7803" y="1" relative="1" as="geometry">
            <mxPoint as="offset" />
          </mxGeometry>
        </mxCell>
        <mxCell id="6el7qwlwJJnYTwrro5pq-1" value="&lt;h1&gt;&lt;br&gt;&lt;/h1&gt;&lt;p&gt;Trivy scanning and produce the image vulnerability report to Azure Devops (gitops repo)&lt;/p&gt;" style="text;html=1;strokeColor=none;fillColor=none;spacing=5;spacingTop=-20;whiteSpace=wrap;overflow=hidden;rounded=0;" vertex="1" parent="1">
          <mxGeometry x="960" y="440" width="190" height="120" as="geometry" />
        </mxCell>
        <mxCell id="6el7qwlwJJnYTwrro5pq-2" value="" style="shape=image;imageAspect=0;aspect=fixed;verticalLabelPosition=bottom;verticalAlign=top;image=https://github.com/aquasecurity/trivy/blob/main/docs/imgs/logo.png?raw=true;" vertex="1" parent="1">
          <mxGeometry x="970" y="380" width="95.3" height="100" as="geometry" />
        </mxCell>
        <mxCell id="8xpqo2ipWvwapBS9JPTH-14" value="" style="shape=image;imageAspect=0;aspect=fixed;verticalLabelPosition=bottom;verticalAlign=top;image=https://github.com/project-copacetic/copacetic/blob/main/website/static/img/logo.png?raw=true;" vertex="1" parent="1">
          <mxGeometry x="970" y="540" width="86" height="86" as="geometry" />
        </mxCell>
        <mxCell id="8xpqo2ipWvwapBS9JPTH-15" value="&lt;h1&gt;&lt;br&gt;&lt;/h1&gt;&lt;p&gt;copa cli based on buildkit that can be used to directly patch container images given the vulnerability scanning result.&lt;/p&gt;" style="text;html=1;strokeColor=none;fillColor=none;spacing=5;spacingTop=-20;whiteSpace=wrap;overflow=hidden;rounded=0;" vertex="1" parent="1">
          <mxGeometry x="970" y="600" width="190" height="120" as="geometry" />
        </mxCell>
        <mxCell id="7ALGjgdlmBuk4FBeGlCD-1" value="&lt;h1&gt;Auto Test&lt;/h1&gt;&lt;p&gt;Auto test tools engage if applicable.&amp;nbsp;&lt;/p&gt;" style="text;html=1;strokeColor=none;fillColor=none;spacing=5;spacingTop=-20;whiteSpace=wrap;overflow=hidden;rounded=0;" vertex="1" parent="1">
          <mxGeometry x="970" y="230" width="190" height="120" as="geometry" />
        </mxCell>
        <mxCell id="BN6Ej3meUkoS8MvZNWov-1" value="&lt;h1&gt;Azure DevOps&lt;/h1&gt;&lt;p&gt;Developer review vulnerability report and take correspondence action. (code/base image fix)&lt;/p&gt;" style="text;html=1;strokeColor=none;fillColor=none;spacing=5;spacingTop=-20;whiteSpace=wrap;overflow=hidden;rounded=0;" vertex="1" parent="1">
          <mxGeometry x="970" y="40" width="190" height="120" as="geometry" />
        </mxCell>
      </root>
    </mxGraphModel>
  </diagram>
  <diagram id="5ppyK25IxGfkhvWZdvQU" name="logical diagram">
    <mxGraphModel dx="1434" dy="780" grid="1" gridSize="10" guides="1" tooltips="1" connect="1" arrows="1" fold="1" page="1" pageScale="1" pageWidth="1654" pageHeight="1169" math="0" shadow="0">
      <root>
        <mxCell id="0" />
        <mxCell id="1" parent="0" />
        <mxCell id="QwlXaJDkll6c6kUR5PWj-1" style="edgeStyle=orthogonalEdgeStyle;rounded=0;orthogonalLoop=1;jettySize=auto;html=1;exitX=1;exitY=0.5;exitDx=0;exitDy=0;exitPerimeter=0;entryX=0;entryY=0.5;entryDx=0;entryDy=0;" parent="1" source="CeuxjPG6Lqqa-N_69ksF-1" target="CeuxjPG6Lqqa-N_69ksF-2" edge="1">
          <mxGeometry relative="1" as="geometry" />
        </mxCell>
        <mxCell id="CeuxjPG6Lqqa-N_69ksF-1" value="Code development" style="strokeWidth=2;html=1;shape=mxgraph.flowchart.start_2;whiteSpace=wrap;" parent="1" vertex="1">
          <mxGeometry x="40" y="118" width="100" height="100" as="geometry" />
        </mxCell>
        <mxCell id="QwlXaJDkll6c6kUR5PWj-15" style="edgeStyle=orthogonalEdgeStyle;rounded=0;orthogonalLoop=1;jettySize=auto;html=1;exitX=1;exitY=0.5;exitDx=0;exitDy=0;entryX=0;entryY=0.5;entryDx=0;entryDy=0;" parent="1" source="CeuxjPG6Lqqa-N_69ksF-2" target="QwlXaJDkll6c6kUR5PWj-11" edge="1">
          <mxGeometry relative="1" as="geometry" />
        </mxCell>
        <mxCell id="CeuxjPG6Lqqa-N_69ksF-2" value="check out source code" style="rounded=1;whiteSpace=wrap;html=1;absoluteArcSize=1;arcSize=14;strokeWidth=2;" parent="1" vertex="1">
          <mxGeometry x="200" y="118" width="100" height="100" as="geometry" />
        </mxCell>
        <mxCell id="QwlXaJDkll6c6kUR5PWj-12" style="edgeStyle=orthogonalEdgeStyle;rounded=0;orthogonalLoop=1;jettySize=auto;html=1;exitX=0.5;exitY=1;exitDx=0;exitDy=0;entryX=0.5;entryY=0;entryDx=0;entryDy=0;" parent="1" source="QwlXaJDkll6c6kUR5PWj-11" target="QwlXaJDkll6c6kUR5PWj-8" edge="1">
          <mxGeometry relative="1" as="geometry">
            <mxPoint x="410" y="280" as="sourcePoint" />
            <mxPoint x="620" y="380" as="targetPoint" />
            <Array as="points">
              <mxPoint x="470" y="280" />
              <mxPoint x="510" y="280" />
            </Array>
          </mxGeometry>
        </mxCell>
        <mxCell id="QwlXaJDkll6c6kUR5PWj-13" value="Post code scanning result" style="edgeLabel;html=1;align=center;verticalAlign=middle;resizable=0;points=[];" parent="QwlXaJDkll6c6kUR5PWj-12" vertex="1" connectable="0">
          <mxGeometry x="-0.0095" y="1" relative="1" as="geometry">
            <mxPoint as="offset" />
          </mxGeometry>
        </mxCell>
        <mxCell id="QwlXaJDkll6c6kUR5PWj-14" value="" style="shape=image;imageAspect=0;aspect=fixed;verticalLabelPosition=bottom;verticalAlign=top;image=https://visuresolutions.com/wp-content/uploads/2022/11/Azure-DevOps--1200x675.png;" parent="1" vertex="1">
          <mxGeometry x="294" y="168" width="124.23" height="70" as="geometry" />
        </mxCell>
        <mxCell id="QwlXaJDkll6c6kUR5PWj-19" value="" style="group" parent="1" vertex="1" connectable="0">
          <mxGeometry x="460" y="440" width="180" height="110" as="geometry" />
        </mxCell>
        <mxCell id="QwlXaJDkll6c6kUR5PWj-7" value="" style="shape=image;imageAspect=0;aspect=fixed;verticalLabelPosition=bottom;verticalAlign=top;image=https://assets-global.website-files.com/609be0ad60f16c3928f5d185/61f04d9bab0c7384d3eb45c6_emblem%20only%20logo.png;" parent="QwlXaJDkll6c6kUR5PWj-19" vertex="1">
          <mxGeometry x="100" y="30" width="80" height="80" as="geometry" />
        </mxCell>
        <mxCell id="QwlXaJDkll6c6kUR5PWj-8" value="ArmorCode&lt;br&gt;ASPM" style="rounded=1;whiteSpace=wrap;html=1;absoluteArcSize=1;arcSize=14;strokeWidth=2;" parent="QwlXaJDkll6c6kUR5PWj-19" vertex="1">
          <mxGeometry width="100" height="100" as="geometry" />
        </mxCell>
        <mxCell id="QwlXaJDkll6c6kUR5PWj-20" value="" style="group" parent="1" vertex="1" connectable="0">
          <mxGeometry x="420" y="138" width="185" height="100" as="geometry" />
        </mxCell>
        <mxCell id="QwlXaJDkll6c6kUR5PWj-5" value="" style="shape=image;imageAspect=0;aspect=fixed;verticalLabelPosition=bottom;verticalAlign=top;image=https://media.zenfs.com/en/globenewswire.com/94fb357249027e6f754cf56ce4b480f2;" parent="QwlXaJDkll6c6kUR5PWj-20" vertex="1">
          <mxGeometry x="105" y="20" width="80" height="80" as="geometry" />
        </mxCell>
        <mxCell id="QwlXaJDkll6c6kUR5PWj-11" value="code scanning" style="verticalLabelPosition=bottom;verticalAlign=top;html=1;shape=process;whiteSpace=wrap;rounded=1;size=0.14;arcSize=6;" parent="QwlXaJDkll6c6kUR5PWj-20" vertex="1">
          <mxGeometry width="100" height="60" as="geometry" />
        </mxCell>
        <mxCell id="QwlXaJDkll6c6kUR5PWj-21" value="" style="group" parent="1" vertex="1" connectable="0">
          <mxGeometry x="200" y="827" width="273.34000000000003" height="80" as="geometry" />
        </mxCell>
        <mxCell id="QwlXaJDkll6c6kUR5PWj-17" value="" style="shape=image;imageAspect=0;aspect=fixed;verticalLabelPosition=bottom;verticalAlign=top;image=https://cognizant.scene7.com/is/image/cognizant/servicenow-partner-logo?fmt=png-alpha&amp;;" parent="QwlXaJDkll6c6kUR5PWj-21" vertex="1">
          <mxGeometry x="100" y="30" width="173.34" height="50" as="geometry" />
        </mxCell>
        <mxCell id="QwlXaJDkll6c6kUR5PWj-18" value="ITSM" style="verticalLabelPosition=bottom;verticalAlign=top;html=1;shape=process;whiteSpace=wrap;rounded=1;size=0.14;arcSize=6;" parent="QwlXaJDkll6c6kUR5PWj-21" vertex="1">
          <mxGeometry width="100" height="60" as="geometry" />
        </mxCell>
        <mxCell id="QwlXaJDkll6c6kUR5PWj-22" style="edgeStyle=orthogonalEdgeStyle;rounded=0;orthogonalLoop=1;jettySize=auto;html=1;exitX=0;exitY=0.5;exitDx=0;exitDy=0;entryX=0.5;entryY=1;entryDx=0;entryDy=0;" parent="1" source="QwlXaJDkll6c6kUR5PWj-8" target="CeuxjPG6Lqqa-N_69ksF-2" edge="1">
          <mxGeometry relative="1" as="geometry" />
        </mxCell>
        <mxCell id="QwlXaJDkll6c6kUR5PWj-23" value="Create issue to correspondence code repo" style="edgeLabel;html=1;align=center;verticalAlign=middle;resizable=0;points=[];" parent="QwlXaJDkll6c6kUR5PWj-22" vertex="1" connectable="0">
          <mxGeometry x="-0.1719" y="2" relative="1" as="geometry">
            <mxPoint as="offset" />
          </mxGeometry>
        </mxCell>
        <mxCell id="14XjwA4BjdU_jCx7pXGb-3" value="" style="group" parent="1" vertex="1" connectable="0">
          <mxGeometry x="200" y="667" width="166.71000000000004" height="80" as="geometry" />
        </mxCell>
        <mxCell id="14XjwA4BjdU_jCx7pXGb-1" value="" style="shape=image;imageAspect=0;aspect=fixed;verticalLabelPosition=bottom;verticalAlign=top;image=https://github.com/aquasecurity/trivy/blob/main/docs/imgs/logo.png?raw=true;" parent="14XjwA4BjdU_jCx7pXGb-3" vertex="1">
          <mxGeometry x="100" y="10" width="66.71" height="70" as="geometry" />
        </mxCell>
        <mxCell id="14XjwA4BjdU_jCx7pXGb-2" value="image scanning" style="verticalLabelPosition=bottom;verticalAlign=top;html=1;shape=process;whiteSpace=wrap;rounded=1;size=0.14;arcSize=6;" parent="14XjwA4BjdU_jCx7pXGb-3" vertex="1">
          <mxGeometry width="100" height="60" as="geometry" />
        </mxCell>
        <mxCell id="14XjwA4BjdU_jCx7pXGb-4" style="edgeStyle=orthogonalEdgeStyle;rounded=0;orthogonalLoop=1;jettySize=auto;html=1;exitX=0.5;exitY=0;exitDx=0;exitDy=0;entryX=0.5;entryY=1;entryDx=0;entryDy=0;" parent="1" source="14XjwA4BjdU_jCx7pXGb-2" target="QwlXaJDkll6c6kUR5PWj-8" edge="1">
          <mxGeometry relative="1" as="geometry" />
        </mxCell>
        <mxCell id="14XjwA4BjdU_jCx7pXGb-5" value="Post image scanning result" style="edgeLabel;html=1;align=center;verticalAlign=middle;resizable=0;points=[];" parent="14XjwA4BjdU_jCx7pXGb-4" vertex="1" connectable="0">
          <mxGeometry x="-0.1963" y="-1" relative="1" as="geometry">
            <mxPoint as="offset" />
          </mxGeometry>
        </mxCell>
        <mxCell id="14XjwA4BjdU_jCx7pXGb-7" style="edgeStyle=orthogonalEdgeStyle;rounded=0;orthogonalLoop=1;jettySize=auto;html=1;exitX=0.75;exitY=1;exitDx=0;exitDy=0;entryX=1;entryY=0.5;entryDx=0;entryDy=0;" parent="1" source="QwlXaJDkll6c6kUR5PWj-8" target="QwlXaJDkll6c6kUR5PWj-18" edge="1">
          <mxGeometry relative="1" as="geometry" />
        </mxCell>
        <mxCell id="14XjwA4BjdU_jCx7pXGb-8" value="Create service ticket&lt;br&gt;Assign to correspondence team" style="edgeLabel;html=1;align=center;verticalAlign=middle;resizable=0;points=[];" parent="14XjwA4BjdU_jCx7pXGb-7" vertex="1" connectable="0">
          <mxGeometry x="0.1242" y="1" relative="1" as="geometry">
            <mxPoint as="offset" />
          </mxGeometry>
        </mxCell>
        <mxCell id="Svx-tNL8AEzJ8Eo_UOmw-1" style="edgeStyle=orthogonalEdgeStyle;rounded=0;orthogonalLoop=1;jettySize=auto;html=1;exitX=1;exitY=0.5;exitDx=0;exitDy=0;exitPerimeter=0;entryX=0;entryY=0.5;entryDx=0;entryDy=0;" parent="1" source="14XjwA4BjdU_jCx7pXGb-10" target="14XjwA4BjdU_jCx7pXGb-2" edge="1">
          <mxGeometry relative="1" as="geometry" />
        </mxCell>
        <mxCell id="14XjwA4BjdU_jCx7pXGb-10" value="Vulnerability Scanning &amp;amp; Reporting" style="strokeWidth=2;html=1;shape=mxgraph.flowchart.start_2;whiteSpace=wrap;" parent="1" vertex="1">
          <mxGeometry x="40" y="647" width="100" height="100" as="geometry" />
        </mxCell>
        <mxCell id="Svx-tNL8AEzJ8Eo_UOmw-3" value="Pass?" style="strokeWidth=2;html=1;shape=mxgraph.flowchart.decision;whiteSpace=wrap;" parent="1" vertex="1">
          <mxGeometry x="683" y="118" width="100" height="100" as="geometry" />
        </mxCell>
        <mxCell id="Svx-tNL8AEzJ8Eo_UOmw-4" style="edgeStyle=orthogonalEdgeStyle;rounded=0;orthogonalLoop=1;jettySize=auto;html=1;exitX=1;exitY=0.5;exitDx=0;exitDy=0;entryX=0;entryY=0.5;entryDx=0;entryDy=0;entryPerimeter=0;" parent="1" source="QwlXaJDkll6c6kUR5PWj-11" target="Svx-tNL8AEzJ8Eo_UOmw-3" edge="1">
          <mxGeometry relative="1" as="geometry" />
        </mxCell>
        <mxCell id="Svx-tNL8AEzJ8Eo_UOmw-6" style="edgeStyle=orthogonalEdgeStyle;rounded=0;orthogonalLoop=1;jettySize=auto;html=1;exitX=0.5;exitY=1;exitDx=0;exitDy=0;exitPerimeter=0;" parent="1" source="Svx-tNL8AEzJ8Eo_UOmw-3" target="Svx-tNL8AEzJ8Eo_UOmw-16" edge="1">
          <mxGeometry relative="1" as="geometry">
            <mxPoint x="1000" y="168" as="targetPoint" />
          </mxGeometry>
        </mxCell>
        <mxCell id="Svx-tNL8AEzJ8Eo_UOmw-7" value="Yes" style="edgeLabel;html=1;align=center;verticalAlign=middle;resizable=0;points=[];" parent="Svx-tNL8AEzJ8Eo_UOmw-6" vertex="1" connectable="0">
          <mxGeometry x="-0.6833" y="-1" relative="1" as="geometry">
            <mxPoint as="offset" />
          </mxGeometry>
        </mxCell>
        <mxCell id="Svx-tNL8AEzJ8Eo_UOmw-12" value="Service Deployment" style="strokeWidth=2;html=1;shape=mxgraph.flowchart.terminator;whiteSpace=wrap;" parent="1" vertex="1">
          <mxGeometry x="1240" y="465" width="100" height="60" as="geometry" />
        </mxCell>
        <mxCell id="tXwKOte8MH6rZblI8Eqc-1" style="edgeStyle=orthogonalEdgeStyle;rounded=0;orthogonalLoop=1;jettySize=auto;html=1;entryX=0.44;entryY=-0.01;entryDx=0;entryDy=0;entryPerimeter=0;exitX=0.5;exitY=0;exitDx=0;exitDy=0;exitPerimeter=0;" parent="1" source="Svx-tNL8AEzJ8Eo_UOmw-3" target="CeuxjPG6Lqqa-N_69ksF-1" edge="1">
          <mxGeometry relative="1" as="geometry">
            <mxPoint x="760" y="70" as="sourcePoint" />
            <Array as="points">
              <mxPoint x="733" y="40" />
              <mxPoint x="84" y="40" />
            </Array>
          </mxGeometry>
        </mxCell>
        <mxCell id="tXwKOte8MH6rZblI8Eqc-3" value="No" style="edgeLabel;html=1;align=center;verticalAlign=middle;resizable=0;points=[];" parent="tXwKOte8MH6rZblI8Eqc-1" vertex="1" connectable="0">
          <mxGeometry x="-0.0141" y="-1" relative="1" as="geometry">
            <mxPoint as="offset" />
          </mxGeometry>
        </mxCell>
        <mxCell id="tXwKOte8MH6rZblI8Eqc-5" value="" style="group" parent="1" vertex="1" connectable="0">
          <mxGeometry x="683" y="440" width="287.79999999999995" height="120" as="geometry" />
        </mxCell>
        <mxCell id="Svx-tNL8AEzJ8Eo_UOmw-16" value="Build image and upload to Quay" style="rounded=1;whiteSpace=wrap;html=1;absoluteArcSize=1;arcSize=14;strokeWidth=2;" parent="tXwKOte8MH6rZblI8Eqc-5" vertex="1">
          <mxGeometry width="100" height="100" as="geometry" />
        </mxCell>
        <mxCell id="tXwKOte8MH6rZblI8Eqc-4" value="" style="shape=image;imageAspect=0;aspect=fixed;verticalLabelPosition=bottom;verticalAlign=top;image=https://purelogicit.com/wp-content/uploads/2022/05/Red-Hat_quay-300x123.png;" parent="tXwKOte8MH6rZblI8Eqc-5" vertex="1">
          <mxGeometry x="100" y="43" width="187.8" height="77" as="geometry" />
        </mxCell>
        <mxCell id="tXwKOte8MH6rZblI8Eqc-6" style="edgeStyle=orthogonalEdgeStyle;rounded=0;orthogonalLoop=1;jettySize=auto;html=1;exitX=0;exitY=0.25;exitDx=0;exitDy=0;entryX=0.5;entryY=1;entryDx=0;entryDy=0;" parent="1" source="14XjwA4BjdU_jCx7pXGb-1" target="Svx-tNL8AEzJ8Eo_UOmw-16" edge="1">
          <mxGeometry relative="1" as="geometry">
            <Array as="points">
              <mxPoint x="733" y="695" />
            </Array>
          </mxGeometry>
        </mxCell>
        <mxCell id="LENP9HRseucliEFe_9Jo-1" value="gitops repo update image tag" style="rounded=1;whiteSpace=wrap;html=1;absoluteArcSize=1;arcSize=14;strokeWidth=2;" vertex="1" parent="1">
          <mxGeometry x="970" y="585" width="100" height="100" as="geometry" />
        </mxCell>
        <mxCell id="LENP9HRseucliEFe_9Jo-2" value="" style="shape=image;imageAspect=0;aspect=fixed;verticalLabelPosition=bottom;verticalAlign=top;image=https://visuresolutions.com/wp-content/uploads/2022/11/Azure-DevOps--1200x675.png;" vertex="1" parent="1">
          <mxGeometry x="1070" y="615" width="124.23" height="70" as="geometry" />
        </mxCell>
        <mxCell id="LENP9HRseucliEFe_9Jo-3" style="edgeStyle=orthogonalEdgeStyle;rounded=0;orthogonalLoop=1;jettySize=auto;html=1;exitX=1;exitY=0.5;exitDx=0;exitDy=0;entryX=0;entryY=0.5;entryDx=0;entryDy=0;" edge="1" parent="1" source="Svx-tNL8AEzJ8Eo_UOmw-16" target="LENP9HRseucliEFe_9Jo-1">
          <mxGeometry relative="1" as="geometry" />
        </mxCell>
        <mxCell id="LENP9HRseucliEFe_9Jo-4" style="edgeStyle=orthogonalEdgeStyle;rounded=0;orthogonalLoop=1;jettySize=auto;html=1;exitX=0.5;exitY=0;exitDx=0;exitDy=0;entryX=0;entryY=0.5;entryDx=0;entryDy=0;entryPerimeter=0;" edge="1" parent="1" source="LENP9HRseucliEFe_9Jo-1" target="Svx-tNL8AEzJ8Eo_UOmw-12">
          <mxGeometry relative="1" as="geometry" />
        </mxCell>
        <mxCell id="LENP9HRseucliEFe_9Jo-6" value="Development" style="text;html=1;strokeColor=none;fillColor=none;align=center;verticalAlign=middle;whiteSpace=wrap;rounded=0;" vertex="1" parent="1">
          <mxGeometry x="60" y="230" width="60" height="30" as="geometry" />
        </mxCell>
        <mxCell id="LENP9HRseucliEFe_9Jo-7" value="Operation" style="text;html=1;strokeColor=none;fillColor=none;align=center;verticalAlign=middle;whiteSpace=wrap;rounded=0;" vertex="1" parent="1">
          <mxGeometry x="60" y="760" width="60" height="30" as="geometry" />
        </mxCell>
      </root>
    </mxGraphModel>
  </diagram>
  <diagram id="lEV93erMQ8eQ0tub9Ssa" name="Cycode &amp; Armorcode">
    <mxGraphModel dx="1434" dy="780" grid="1" gridSize="10" guides="1" tooltips="1" connect="1" arrows="1" fold="1" page="1" pageScale="1" pageWidth="1169" pageHeight="827" math="0" shadow="0">
      <root>
        <mxCell id="0" />
        <mxCell id="1" parent="0" />
        <mxCell id="tCZsqFX8V95USi-XTHdw-1" value="Pool" style="swimlane;childLayout=stackLayout;resizeParent=1;resizeParentMax=0;horizontal=1;startSize=20;horizontalStack=0;html=1;" parent="1" vertex="1">
          <mxGeometry width="880" height="740" as="geometry" />
        </mxCell>
        <mxCell id="tCZsqFX8V95USi-XTHdw-2" value="Development" style="swimlane;startSize=20;horizontal=0;html=1;" parent="tCZsqFX8V95USi-XTHdw-1" vertex="1">
          <mxGeometry y="20" width="880" height="180" as="geometry" />
        </mxCell>
        <mxCell id="tsxPn1B0498nwMPxU8vu-8" style="edgeStyle=orthogonalEdgeStyle;rounded=0;orthogonalLoop=1;jettySize=auto;html=1;exitX=0.5;exitY=0;exitDx=0;exitDy=0;exitPerimeter=0;entryX=0.5;entryY=0;entryDx=0;entryDy=0;" parent="tCZsqFX8V95USi-XTHdw-2" source="tsxPn1B0498nwMPxU8vu-4" target="tsxPn1B0498nwMPxU8vu-6" edge="1">
          <mxGeometry relative="1" as="geometry" />
        </mxCell>
        <mxCell id="tsxPn1B0498nwMPxU8vu-9" value="No" style="edgeLabel;html=1;align=center;verticalAlign=middle;resizable=0;points=[];" parent="tsxPn1B0498nwMPxU8vu-8" vertex="1" connectable="0">
          <mxGeometry x="-0.1073" y="-2" relative="1" as="geometry">
            <mxPoint as="offset" />
          </mxGeometry>
        </mxCell>
        <mxCell id="tsxPn1B0498nwMPxU8vu-4" value="Cycode Scanning Pass?" style="strokeWidth=2;html=1;shape=mxgraph.flowchart.decision;whiteSpace=wrap;" parent="tCZsqFX8V95USi-XTHdw-2" vertex="1">
          <mxGeometry x="385" y="35" width="110" height="110" as="geometry" />
        </mxCell>
        <mxCell id="tsxPn1B0498nwMPxU8vu-1" value="Check-out source code" style="rounded=1;whiteSpace=wrap;html=1;" parent="tCZsqFX8V95USi-XTHdw-2" vertex="1">
          <mxGeometry x="200" y="60" width="120" height="60" as="geometry" />
        </mxCell>
        <mxCell id="tsxPn1B0498nwMPxU8vu-5" style="edgeStyle=orthogonalEdgeStyle;rounded=0;orthogonalLoop=1;jettySize=auto;html=1;exitX=1;exitY=0.5;exitDx=0;exitDy=0;entryX=0;entryY=0.5;entryDx=0;entryDy=0;entryPerimeter=0;" parent="tCZsqFX8V95USi-XTHdw-2" source="tsxPn1B0498nwMPxU8vu-1" target="tsxPn1B0498nwMPxU8vu-4" edge="1">
          <mxGeometry relative="1" as="geometry" />
        </mxCell>
        <mxCell id="tsxPn1B0498nwMPxU8vu-7" style="edgeStyle=orthogonalEdgeStyle;rounded=0;orthogonalLoop=1;jettySize=auto;html=1;exitX=1;exitY=0.5;exitDx=0;exitDy=0;entryX=0;entryY=0.5;entryDx=0;entryDy=0;" parent="tCZsqFX8V95USi-XTHdw-2" source="tsxPn1B0498nwMPxU8vu-6" target="tsxPn1B0498nwMPxU8vu-1" edge="1">
          <mxGeometry relative="1" as="geometry" />
        </mxCell>
        <mxCell id="tsxPn1B0498nwMPxU8vu-6" value="Code development" style="rounded=1;whiteSpace=wrap;html=1;" parent="tCZsqFX8V95USi-XTHdw-2" vertex="1">
          <mxGeometry x="30" y="60" width="120" height="60" as="geometry" />
        </mxCell>
        <mxCell id="tCZsqFX8V95USi-XTHdw-3" value="Lane 2" style="swimlane;startSize=20;horizontal=0;html=1;" parent="tCZsqFX8V95USi-XTHdw-1" vertex="1">
          <mxGeometry y="200" width="880" height="180" as="geometry" />
        </mxCell>
        <mxCell id="tCZsqFX8V95USi-XTHdw-4" value="Lane 3" style="swimlane;startSize=20;horizontal=0;html=1;" parent="tCZsqFX8V95USi-XTHdw-1" vertex="1">
          <mxGeometry y="380" width="880" height="180" as="geometry" />
        </mxCell>
        <mxCell id="tCZsqFX8V95USi-XTHdw-5" value="Lane 3" style="swimlane;startSize=20;horizontal=0;html=1;" parent="tCZsqFX8V95USi-XTHdw-1" vertex="1">
          <mxGeometry y="560" width="880" height="180" as="geometry" />
        </mxCell>
      </root>
    </mxGraphModel>
  </diagram>
</mxfile>
